<?xml version="1.0" ?><!DOCTYPE svg  PUBLIC '-//W3C//DTD SVG 1.1//EN'  'http://www.w3.org/Graphics/SVG/1.1/DTD/svg11.dtd'><svg height="512px" style="enable-background:new 0 0 512 512;" version="1.1" viewBox="0 0 512 512" width="512px" xml:space="preserve" xmlns="http://www.w3.org/2000/svg" xmlns:xlink="http://www.w3.org/1999/xlink"><g id="_x33_72-weebly"><g><path d="M407.903,85.151c-35.829,0-65.836,23.115-75.161,57.794    c-16.314-52.161-58.846-57.794-76.319-57.794c-17.77,0-60.014,5.642-76.615,57.794c-9.327-34.679-39.037-57.794-75.161-57.794    C60.669,85.151,26,115.597,26,154.507c0,26.018,3.755,29.89,69.33,209.759c20.097,54.418,60.885,62.306,83.319,62.306    c35.244,0,62.924-17.484,77.199-48.495c14.275,31.29,41.946,48.772,77.199,48.772c22.435,0,63.211-8.176,83.318-62.593    c68.772-187.45,69.627-184.693,69.627-204.116C486.558,116.729,453.642,85.151,407.903,85.151L407.903,85.151z" style="fill:#3192E7;"/><path d="M431.564,188.297l-58.906,158.514c-7.115,19.307-19.063,33.438-41.542,33.438    c-21.06,0-33.582-11.148-39.557-30.456l-35.289-105.489h-0.854l-35.289,105.489c-6.253,19.316-18.776,30.187-39.547,30.187    c-22.479,0-34.436-14.14-41.542-33.439L80.695,189.114c-4.833-13.324-7.115-21.481-7.115-30.996    c0-14.68,14.23-26.376,34.437-26.376c16.792,0,28.739,10.601,32.441,26.098l39.557,125.615h0.853l40.123-122.893    c5.408-17.671,14.795-28.82,35.001-28.82c20.206,0,29.593,10.879,35.001,28.82l40.123,122.893h0.854l39.557-125.615    c3.701-15.497,15.65-26.098,32.441-26.098c19.917,0,34.436,11.966,34.436,32.081C438.117,170.895,434.702,178.234,431.564,188.297    L431.564,188.297z" style="fill:#FFFFFF;"/></g></g><g id="Layer_1"/></svg>