<svg width="30" height="30" viewBox="0 0 30 30" fill="none" xmlns="http://www.w3.org/2000/svg">
<path fill-rule="evenodd" clip-rule="evenodd" d="M15.0001 0L27.9905 7.5V22.5L15.0001 30L2.00977 22.5V7.5L15.0001 0Z" fill="black"/>
<path fill-rule="evenodd" clip-rule="evenodd" d="M9.67804 7H20.322C21.801 7 23 8.2026 23 9.67804V20.322C23 21.801 21.7974 23 20.322 23H9.67804C8.199 23 7 21.7974 7 20.322V9.67804C7 8.199 8.2026 7 9.67804 7ZM19.4734 13.6667H21.6667V20.322C21.6667 21.0631 21.0625 21.6667 20.322 21.6667H9.67804C8.9369 21.6667 8.33333 21.0625 8.33333 20.322V13.6667H10.5266C10.4009 14.0891 10.3333 14.5367 10.3333 15C10.3333 17.5773 12.4227 19.6667 15 19.6667C17.5773 19.6667 19.6667 17.5773 19.6667 15C19.6667 14.5367 19.5991 14.0891 19.4734 13.6667ZM15 18.3333C16.8409 18.3333 18.3333 16.8409 18.3333 15C18.3333 13.1591 16.8409 11.6667 15 11.6667C13.1591 11.6667 11.6667 13.1591 11.6667 15C11.6667 16.8409 13.1591 18.3333 15 18.3333ZM17.6667 8.99385C17.6667 8.62906 17.9543 8.33333 18.3272 8.33333H21.0061C21.3709 8.33333 21.6667 8.621 21.6667 8.99385V11.6728C21.6667 12.0376 21.379 12.3333 21.0061 12.3333H18.3272C17.9624 12.3333 17.6667 12.0457 17.6667 11.6728V8.99385Z" fill="#A0F97C"/>
</svg>
