<svg width="30" height="30" viewBox="0 0 30 30" fill="none" xmlns="http://www.w3.org/2000/svg">
<path fill-rule="evenodd" clip-rule="evenodd" d="M15.0001 0L27.9905 7.5V22.5L15.0001 30L2.00977 22.5V7.5L15.0001 0Z" fill="black"/>
<path fill-rule="evenodd" clip-rule="evenodd" d="M20.5268 9.21833C19.9223 8.53108 19.061 8.09321 18.1078 8.07735C16.2776 8.04688 14.7936 9.59344 14.7936 11.5315C14.7936 11.8066 14.8229 12.0748 14.8794 12.3323C12.125 12.1537 9.68299 10.7194 8.04846 8.55734C7.76318 9.07541 7.59971 9.68092 7.59971 10.3296C7.59971 11.5575 8.1848 12.6472 9.07407 13.2907C8.53081 13.2667 8.01979 13.1023 7.57297 12.8325C7.57265 12.8472 7.57265 12.862 7.57265 12.877C7.57265 14.5918 8.71505 16.0303 10.2312 16.3654C9.95308 16.4442 9.66029 16.4855 9.35805 16.4835C9.1445 16.4821 8.93684 16.4584 8.73451 16.4159C9.15621 17.8222 10.3801 18.8484 11.8304 18.8823C10.6962 19.8238 9.26719 20.3846 7.7144 20.3814C7.44689 20.3808 7.1831 20.3635 6.92383 20.3303C8.39052 21.3366 10.1325 21.9226 12.0041 21.9231C18.1 21.9247 21.4336 16.6197 21.4336 12.0184C21.4336 11.8674 21.4303 11.7172 21.424 11.5678C22.0715 11.0853 22.6334 10.4804 23.0777 9.78959C22.4834 10.0575 21.8446 10.2354 21.1743 10.3101C21.8585 9.88896 22.384 9.21503 22.6314 8.40686C21.991 8.79523 21.2818 9.07374 20.5268 9.21833Z" fill="#A0F97C"/>
</svg>
