<svg width="30" height="30" viewBox="0 0 30 30" fill="none" xmlns="http://www.w3.org/2000/svg">
<path fill-rule="evenodd" clip-rule="evenodd" d="M15.0002 0L27.9905 7.5V22.5L15.0002 30L2.00977 22.5V7.5L15.0002 0Z" fill="black"/>
<path fill-rule="evenodd" clip-rule="evenodd" d="M24.6079 11.0344C24.6079 11.0344 24.4204 9.71305 23.8454 9.13101C23.1166 8.36745 22.2991 8.36382 21.9244 8.31908C19.2413 8.125 15.2164 8.125 15.2164 8.125H15.2079C15.2079 8.125 11.1832 8.125 8.49986 8.31908C8.12511 8.36382 7.30807 8.36745 6.57881 9.13101C6.0038 9.71305 5.81674 11.0344 5.81674 11.0344C5.81674 11.0344 5.625 12.586 5.625 14.1376V15.5925C5.625 17.1439 5.81674 18.6955 5.81674 18.6955C5.81674 18.6955 6.0038 20.0169 6.57881 20.5989C7.30807 21.3627 8.26614 21.3382 8.69287 21.4183C10.227 21.5655 15.2121 21.6111 15.2121 21.6111C15.2121 21.6111 19.2413 21.6049 21.9244 21.411C22.2991 21.3663 23.1166 21.3627 23.8454 20.5989C24.4204 20.0169 24.6079 18.6955 24.6079 18.6955C24.6079 18.6955 24.7992 17.1439 24.7992 15.5925V14.1376C24.7992 12.586 24.6079 11.0344 24.6079 11.0344ZM13.2327 17.355L13.2318 11.9677L18.4127 14.6707L13.2327 17.355Z" fill="#A0F97C"/>
</svg>
