<svg width="30" height="30" viewBox="0 0 30 30" fill="none" xmlns="http://www.w3.org/2000/svg">
<path fill-rule="evenodd" clip-rule="evenodd" d="M15.0002 0L27.9905 7.5V22.5L15.0002 30L2.00977 22.5V7.5L15.0002 0Z" fill="black"/>
<path fill-rule="evenodd" clip-rule="evenodd" d="M10.9424 21.9116V12.7622H8.11459V21.9116H10.9424ZM10.9424 9.51909C10.9256 8.70031 10.3799 8.0769 9.49344 8.0769C8.60673 8.0769 8.02734 8.70031 8.02734 9.51909C8.02734 10.3201 8.5899 10.9615 9.45953 10.9615H9.47638C10.3799 10.9615 10.9424 10.3201 10.9424 9.51909ZM15.5559 21.9116V16.6987C15.5559 16.4197 15.5761 16.1407 15.6581 15.9418C15.8824 15.3841 16.3929 14.8068 17.25 14.8068C18.3728 14.8068 19.0771 15.4441 19.0771 16.6987V21.9116H21.924V16.5592C21.924 13.692 20.3934 12.3578 18.3519 12.3578C16.678 12.3578 15.9432 13.2937 15.5352 13.9306L15.5557 12.7069H12.7137C12.7545 13.5828 12.7137 21.9116 12.7137 21.9116H15.5559Z" fill="#A0F97C"/>
</svg>
